<?xml version="1.0" encoding="utf-8"?>
<!-- Generator: Adobe Illustrator 23.1.1, SVG Export Plug-In . SVG Version: 6.00 Build 0)  -->
<!DOCTYPE svg PUBLIC "-//W3C//DTD SVG 1.1//EN" "http://www.w3.org/Graphics/SVG/1.1/DTD/svg11.dtd" [
	<!ENTITY ns_extend "http://ns.adobe.com/Extensibility/1.0/">
	<!ENTITY ns_ai "http://ns.adobe.com/AdobeIllustrator/10.0/">
	<!ENTITY ns_graphs "http://ns.adobe.com/Graphs/1.0/">
	<!ENTITY ns_vars "http://ns.adobe.com/Variables/1.0/">
	<!ENTITY ns_imrep "http://ns.adobe.com/ImageReplacement/1.0/">
	<!ENTITY ns_sfw "http://ns.adobe.com/SaveForWeb/1.0/">
	<!ENTITY ns_custom "http://ns.adobe.com/GenericCustomNamespace/1.0/">
	<!ENTITY ns_adobe_xpath "http://ns.adobe.com/XPath/1.0/">
]>
<svg version="1.1" id="Layer_1" xmlns:x="&ns_extend;" xmlns:i="&ns_ai;" xmlns:graph="&ns_graphs;"
	 xmlns="http://www.w3.org/2000/svg" xmlns:xlink="http://www.w3.org/1999/xlink" x="0px" y="0px" viewBox="0 0 486 63"
	 style="enable-background:new 0 0 486 63;" xml:space="preserve">
<style type="text/css">
	.st0{fill:#FFFFFF;}
	.st1{fill:#FFFFFF;stroke:#000000;stroke-width:5;}
	.st2{stroke:#FFFFFF;stroke-width:5;}
	.st3{enable-background:new    ;}
	.st4{fill:#EFE6E6;}
</style>
<metadata>
	<sfw  xmlns="&ns_sfw;">
		<slices></slices>
		<sliceSourceBounds  bottomLeftOrigin="true" height="398.5" width="480.7" x="0.1" y="-335.5"></sliceSourceBounds>
	</sfw>
</metadata>
<rect x="22.2" class="st0" width="389" height="63"/>
<rect x="2.6" y="2.5" class="st1" width="269.4" height="58"/>
<rect x="277" y="2.5" class="st2" width="201.3" height="58"/>
<g class="st3">
	<path d="M306.8,398.4v-8.6h1v0.8c0.2-0.3,0.5-0.6,0.8-0.7s0.6-0.2,1-0.2c0.5,0,1,0.1,1.4,0.4s0.7,0.7,0.9,1.2s0.3,1,0.3,1.6
		c0,0.6-0.1,1.2-0.3,1.7s-0.6,0.9-1,1.2s-0.9,0.4-1.4,0.4c-0.4,0-0.7-0.1-0.9-0.2s-0.5-0.3-0.7-0.6v3H306.8z M307.7,392.9
		c0,0.8,0.2,1.4,0.5,1.8s0.7,0.6,1.2,0.6c0.5,0,0.9-0.2,1.2-0.6s0.5-1,0.5-1.8c0-0.8-0.2-1.4-0.5-1.8s-0.7-0.6-1.2-0.6
		c-0.4,0-0.8,0.2-1.2,0.6S307.7,392.1,307.7,392.9z"/>
	<path d="M313.7,396v-5.4h-0.9v-0.8h0.9v-0.7c0-0.4,0-0.7,0.1-0.9c0.1-0.3,0.3-0.5,0.5-0.7s0.6-0.3,1.1-0.3c0.3,0,0.6,0,1,0.1
		l-0.2,0.9c-0.2,0-0.4-0.1-0.6-0.1c-0.3,0-0.5,0.1-0.7,0.2s-0.2,0.4-0.2,0.8v0.6h1.2v0.8h-1.2v5.4H313.7z"/>
	<path d="M316.8,396v-5.4h-0.9v-0.8h0.9v-0.7c0-0.4,0-0.7,0.1-0.9c0.1-0.3,0.3-0.5,0.5-0.7s0.6-0.3,1.1-0.3c0.3,0,0.6,0,1,0.1
		l-0.2,0.9c-0.2,0-0.4-0.1-0.6-0.1c-0.3,0-0.5,0.1-0.7,0.2s-0.2,0.4-0.2,0.8v0.6h1.2v0.8h-1.2v5.4H316.8z"/>
	<path d="M319.9,396v-8.6h1.1v8.6H319.9z"/>
	<path d="M322.2,392.9c0-1.2,0.3-2,1-2.6c0.5-0.5,1.2-0.7,2-0.7c0.9,0,1.6,0.3,2.1,0.8s0.8,1.3,0.8,2.3c0,0.8-0.1,1.4-0.4,1.9
		s-0.6,0.8-1,1.1s-1,0.4-1.5,0.4c-0.9,0-1.6-0.3-2.1-0.8S322.2,393.9,322.2,392.9z M323.3,392.9c0,0.8,0.2,1.4,0.5,1.8
		s0.8,0.6,1.3,0.6c0.5,0,1-0.2,1.3-0.6s0.5-1,0.5-1.8c0-0.8-0.2-1.4-0.5-1.7s-0.8-0.6-1.3-0.6c-0.5,0-1,0.2-1.3,0.6
		S323.3,392.1,323.3,392.9z"/>
	<path d="M330.4,396l-1.9-6.2h1.1l1,3.6l0.4,1.3c0-0.1,0.1-0.5,0.3-1.3l1-3.6h1.1l0.9,3.6l0.3,1.2l0.4-1.2l1.1-3.6h1l-1.9,6.2H334
		l-1-3.7l-0.2-1.1l-1.3,4.8H330.4z"/>
	<path d="M337.9,396v-8.6h1.1v8.6H337.9z"/>
	<path d="M340.2,392.9c0-1.2,0.3-2,1-2.6c0.5-0.5,1.2-0.7,2-0.7c0.9,0,1.6,0.3,2.1,0.8s0.8,1.3,0.8,2.3c0,0.8-0.1,1.4-0.4,1.9
		s-0.6,0.8-1,1.1s-1,0.4-1.5,0.4c-0.9,0-1.6-0.3-2.1-0.8S340.2,393.9,340.2,392.9z M341.3,392.9c0,0.8,0.2,1.4,0.5,1.8
		s0.8,0.6,1.3,0.6c0.5,0,1-0.2,1.3-0.6s0.5-1,0.5-1.8c0-0.8-0.2-1.4-0.5-1.7s-0.8-0.6-1.3-0.6c-0.5,0-1,0.2-1.3,0.6
		S341.3,392.1,341.3,392.9z"/>
	<path d="M347.1,396.5l1,0.2c0,0.3,0.2,0.5,0.4,0.7c0.3,0.2,0.6,0.3,1.1,0.3c0.5,0,0.9-0.1,1.1-0.3s0.4-0.5,0.5-0.8
		c0.1-0.2,0.1-0.7,0.1-1.4c-0.5,0.5-1,0.8-1.7,0.8c-0.9,0-1.5-0.3-2-0.9s-0.7-1.4-0.7-2.2c0-0.6,0.1-1.1,0.3-1.6s0.5-0.9,0.9-1.2
		s0.9-0.4,1.4-0.4c0.7,0,1.3,0.3,1.8,0.9v-0.8h1v5.4c0,1-0.1,1.7-0.3,2.1s-0.5,0.7-0.9,1s-1,0.4-1.6,0.4c-0.7,0-1.3-0.2-1.8-0.5
		S347.1,397.2,347.1,396.5z M347.9,392.8c0,0.8,0.2,1.4,0.5,1.8s0.7,0.6,1.2,0.6c0.5,0,0.9-0.2,1.2-0.6s0.5-1,0.5-1.8
		c0-0.8-0.2-1.3-0.5-1.7s-0.7-0.6-1.2-0.6c-0.5,0-0.9,0.2-1.2,0.6S347.9,392,347.9,392.8z"/>
	<path d="M353.5,392.9c0-1.2,0.3-2,1-2.6c0.5-0.5,1.2-0.7,2-0.7c0.9,0,1.6,0.3,2.1,0.8s0.8,1.3,0.8,2.3c0,0.8-0.1,1.4-0.4,1.9
		s-0.6,0.8-1,1.1s-1,0.4-1.5,0.4c-0.9,0-1.6-0.3-2.1-0.8S353.5,393.9,353.5,392.9z M354.6,392.9c0,0.8,0.2,1.4,0.5,1.8
		s0.8,0.6,1.3,0.6c0.5,0,1-0.2,1.3-0.6s0.5-1,0.5-1.8c0-0.8-0.2-1.4-0.5-1.7s-0.8-0.6-1.3-0.6c-0.5,0-1,0.2-1.3,0.6
		S354.6,392.1,354.6,392.9z"/>
	<path d="M360.9,396v-1.2h1.2v1.2H360.9z"/>
	<path d="M363.5,394.1l1-0.2c0.1,0.4,0.2,0.7,0.5,1s0.6,0.3,1.1,0.3c0.5,0,0.8-0.1,1.1-0.3s0.4-0.4,0.4-0.7c0-0.2-0.1-0.4-0.3-0.6
		c-0.1-0.1-0.5-0.2-1.1-0.4c-0.8-0.2-1.3-0.4-1.6-0.5s-0.5-0.3-0.7-0.6s-0.2-0.5-0.2-0.8c0-0.3,0.1-0.5,0.2-0.8s0.3-0.4,0.5-0.6
		c0.2-0.1,0.4-0.2,0.7-0.3s0.6-0.1,0.9-0.1c0.5,0,0.9,0.1,1.3,0.2s0.6,0.3,0.8,0.6s0.3,0.6,0.4,1l-1,0.1c0-0.3-0.2-0.6-0.4-0.8
		s-0.5-0.3-1-0.3c-0.5,0-0.8,0.1-1,0.2s-0.3,0.3-0.3,0.6c0,0.1,0,0.3,0.1,0.4c0.1,0.1,0.2,0.2,0.4,0.3c0.1,0,0.4,0.1,0.9,0.3
		c0.7,0.2,1.3,0.4,1.6,0.5s0.5,0.3,0.7,0.6s0.3,0.5,0.3,0.9c0,0.4-0.1,0.7-0.3,1s-0.5,0.6-0.9,0.7s-0.8,0.3-1.3,0.3
		c-0.8,0-1.4-0.2-1.8-0.5S363.6,394.8,363.5,394.1z"/>
	<path d="M371.7,396l-2.4-6.2h1.1l1.3,3.7c0.1,0.4,0.3,0.8,0.4,1.3c0.1-0.3,0.2-0.7,0.4-1.2l1.4-3.8h1.1l-2.4,6.2H371.7z"/>
	<path d="M375.8,396.5l1,0.2c0,0.3,0.2,0.5,0.4,0.7c0.3,0.2,0.6,0.3,1.1,0.3c0.5,0,0.9-0.1,1.1-0.3s0.4-0.5,0.5-0.8
		c0.1-0.2,0.1-0.7,0.1-1.4c-0.5,0.5-1,0.8-1.7,0.8c-0.9,0-1.5-0.3-2-0.9s-0.7-1.4-0.7-2.2c0-0.6,0.1-1.1,0.3-1.6s0.5-0.9,0.9-1.2
		s0.9-0.4,1.4-0.4c0.7,0,1.3,0.3,1.8,0.9v-0.8h1v5.4c0,1-0.1,1.7-0.3,2.1s-0.5,0.7-0.9,1s-1,0.4-1.6,0.4c-0.7,0-1.3-0.2-1.8-0.5
		S375.7,397.2,375.8,396.5z M376.6,392.8c0,0.8,0.2,1.4,0.5,1.8s0.7,0.6,1.2,0.6c0.5,0,0.9-0.2,1.2-0.6s0.5-1,0.5-1.8
		c0-0.8-0.2-1.3-0.5-1.7s-0.7-0.6-1.2-0.6c-0.5,0-0.9,0.2-1.2,0.6S376.6,392,376.6,392.8z"/>
</g>
<g>
	<g>
		<path d="M13,28.7c0-2.9-0.1-5.4-0.2-7.6h4.6l0.3,3.7h0.1c1.6-2.7,4.2-4.3,7.7-4.3c4.8,0,9.1,4.3,9.1,11.4c0,8.2-5,12.2-10,12.2
			c-2.8,0-5.2-1.2-6.3-3.2h-0.1v11.9H13V28.7z M18.3,33.8c0,0.5,0,1,0.1,1.4c0.5,2.4,2.5,4.4,5.1,4.4c3.5,0,5.8-2.8,5.8-7.4
			c0-3.8-2-7.2-5.6-7.2c-2.4,0-4.6,1.8-5.2,4.7c-0.1,0.4-0.2,0.9-0.2,1.4V33.8z"/>
		<path d="M39.1,10.5h5.3v13.9h0.1c0.7-1.2,1.6-2.1,2.8-2.8c1.1-0.7,2.4-1.1,3.7-1.1c3.5,0,7.6,2.4,7.6,10.1v12.9h-5.3v-12
			c0-3.5-1.2-6.1-4.3-6.1c-2.2,0-3.8,1.7-4.4,3.3c-0.2,0.5-0.2,1.1-0.2,1.7v13.2h-5.3C39.1,43.6,39.1,10.5,39.1,10.5z"/>
		<path d="M85.1,32.1c0,8-5.5,12.1-11.3,12.1c-6.1,0-10.9-4.5-10.9-11.6s4.6-12,11.3-12C80.8,20.5,85.1,25.4,85.1,32.1z M68.4,32.4
			c0,4.5,2.4,7.5,5.6,7.5c3.1,0,5.6-2.7,5.6-7.6c0-3.6-1.7-7.5-5.6-7.5C70.2,24.8,68.4,28.5,68.4,32.4z"/>
		<path d="M95.5,14.5v6.6h5.1v4.5h-5.1V35c0,2.8,0.5,4.4,2.8,4.4c1,0,1.7-0.1,2.2-0.3l0.1,4.5c-0.8,0.3-2.2,0.7-3.9,0.7
			c-2,0-3.6-0.8-4.6-2c-1.1-1.4-1.6-3.6-1.6-6.4V25.6h-3v-4.5h3v-5.2L95.5,14.5z"/>
		<path d="M125.5,32.1c0,8-5.5,12.1-11.3,12.1c-6.1,0-10.9-4.5-10.9-11.6s4.6-12,11.3-12C121.2,20.5,125.5,25.4,125.5,32.1z
			 M108.8,32.4c0,4.5,2.4,7.5,5.6,7.5c3.1,0,5.6-2.7,5.6-7.6c0-3.6-1.7-7.5-5.6-7.5C110.6,24.8,108.8,28.5,108.8,32.4z"/>
		<path d="M149.7,21.1c-0.1,1.4-0.2,3.2-0.2,6.3v12.8c0,4.5-0.9,8.2-3.2,10.4c-2.3,2.3-5.5,2.8-8.3,2.8s-5.8-0.7-7.7-2l1.2-4.5
			c1.4,1,3.8,2,6.5,2c3.5,0,6.3-2,6.3-7v-2h-0.1c-1.3,2.1-3.5,3.6-6.5,3.6c-5.2,0-9.3-4.5-9.3-11c0-7.3,4.6-11.9,9.8-11.9
			c3.5,0,5.5,1.8,6.5,3.8h0.1l0.2-3.2L149.7,21.1L149.7,21.1z M144.2,30.5c0-0.5,0-1-0.1-1.5c-0.6-2.4-2.3-4-4.7-4
			c-3,0-5.5,2.6-5.5,7.3c0,3.5,1.8,6.8,5.5,6.8c2.2,0,4.1-1.7,4.7-3.8c0.2-0.6,0.2-1.4,0.2-2L144.2,30.5L144.2,30.5z"/>
		<path d="M155.4,28.6c0-3.3,0-5.5-0.2-7.5h4.5l0.2,4.6h0.1c1.1-3.5,3.6-5.1,5.9-5.1c0.5,0,0.8,0,1.3,0.1v5.5
			c-0.5-0.1-1-0.2-1.7-0.2c-2.7,0-4.4,1.8-4.9,4.5c-0.1,0.5-0.1,1-0.1,1.6v11.6h-5.3V28.6H155.4z"/>
		<path d="M183.2,43.6l-0.4-2.6h-0.1c-1.3,1.8-3.6,3.1-6.4,3.1c-4.4,0-6.7-3.5-6.7-6.7c0-5.7,4.5-8.7,12.8-8.6v-0.3
			c0-1.2-0.4-3.9-4.4-3.9c-2.1,0-4.5,0.8-5.9,1.8l-1.1-3.8c1.7-1.1,4.4-2.1,7.8-2.1c6.8,0,8.8,4.8,8.8,9.7V38c0,2.1,0.1,4.2,0.3,5.5
			h-4.7V43.6z M182.5,32.7c-4.2-0.1-7.7,0.9-7.7,4.1c0,2.1,1.3,3.2,3.1,3.2c2.3,0,3.9-1.7,4.4-3.3c0.1-0.4,0.2-0.9,0.2-1.3V32.7z"/>
		<path d="M193.4,28.7c0-2.9-0.1-5.4-0.2-7.6h4.6l0.3,3.7h0.1c1.6-2.7,4.2-4.3,7.7-4.3c4.8,0,9.1,4.3,9.1,11.4c0,8.2-5,12.2-10,12.2
			c-2.8,0-5.2-1.2-6.3-3.2h-0.1v11.9h-5.3L193.4,28.7L193.4,28.7z M198.6,33.8c0,0.5,0,1,0.1,1.4c0.5,2.4,2.5,4.4,5.1,4.4
			c3.5,0,5.8-2.8,5.8-7.4c0-3.8-2-7.2-5.6-7.2c-2.4,0-4.6,1.8-5.2,4.7c-0.1,0.4-0.2,0.9-0.2,1.4L198.6,33.8L198.6,33.8z"/>
		<path d="M219.5,10.5h5.3v13.9h0.1c0.7-1.2,1.6-2.1,2.8-2.8c1.1-0.7,2.4-1.1,3.7-1.1c3.5,0,7.6,2.4,7.6,10.1v12.9h-5.3v-12
			c0-3.5-1.2-6.1-4.3-6.1c-2.2,0-3.8,1.7-4.4,3.3c-0.2,0.5-0.2,1.1-0.2,1.7v13.2h-5.3L219.5,10.5L219.5,10.5z"/>
		<path d="M247.9,21.1l4,12c0.4,1.4,0.9,3.2,1.3,4.4h0.1c0.4-1.3,0.8-3.1,1.2-4.5l3.5-11.9h5.7l-5.4,15.1c-3.3,9.6-5.3,13-7.7,15
			c-2.1,1.9-4.3,2.5-5.7,2.7l-1-5c0.8-0.2,1.9-0.6,3-1.3c1-0.6,2.3-2,3.1-3.7c0.2-0.4,0.3-0.7,0.3-1c0-0.2-0.1-0.6-0.3-1.2l-8-20.6
			H247.9z"/>
	</g>
</g>
<g class="st3">
	<path class="st4" d="M297.5,21.6v-5.3h5.8v5.3H297.5z M297.5,46.3V24.5h5.8v21.7H297.5z"/>
	<path class="st4" d="M339.9,46.3h-5.8V35.2c0-2.3-0.1-3.9-0.4-4.6c-0.2-0.7-0.6-1.2-1.2-1.6c-0.6-0.4-1.2-0.6-2-0.6
		c-1,0-1.9,0.3-2.7,0.8c-0.8,0.5-1.3,1.3-1.6,2.2c-0.3,0.9-0.4,2.6-0.4,5v9.8h-5.8V24.5h5.3v3.2c1.9-2.5,4.3-3.7,7.2-3.7
		c1.3,0,2.4,0.2,3.5,0.7s1.8,1,2.4,1.8s0.9,1.5,1.1,2.4c0.2,0.9,0.3,2.2,0.3,3.9V46.3z"/>
	<path class="st4" d="M354.2,24.5h3.2v-1.6c0-1.8,0.2-3.2,0.6-4.1s1.1-1.6,2.1-2.2c1-0.6,2.4-0.8,4-0.8c1.6,0,3.2,0.2,4.8,0.7
		l-0.8,4c-0.9-0.2-1.8-0.3-2.6-0.3c-0.8,0-1.4,0.2-1.8,0.6s-0.5,1.1-0.5,2.2v1.5h4.3v4.5h-4.3v17.2h-5.8V29.1h-3.2V24.5z"/>
	<path class="st4" d="M381.7,46.3v-30h5.8v30H381.7z"/>
	<path class="st4" d="M418.6,46.3V43c-0.8,1.2-1.8,2.1-3.1,2.7c-1.3,0.7-2.7,1-4.1,1c-1.5,0-2.8-0.3-3.9-1c-1.2-0.6-2-1.5-2.5-2.7
		c-0.5-1.2-0.8-2.8-0.8-4.8V24.5h5.8v10c0,3.1,0.1,4.9,0.3,5.6c0.2,0.7,0.6,1.2,1.2,1.6c0.6,0.4,1.3,0.6,2.1,0.6
		c1,0,1.9-0.3,2.6-0.8c0.8-0.5,1.3-1.2,1.6-2c0.3-0.8,0.4-2.8,0.4-5.9v-9.2h5.8v21.7H418.6z"/>
	<path class="st4" d="M438.1,46.3l7.8-11.2l-7.5-10.5h7l3.8,6l4.1-6h6.8l-7.4,10.3l8,11.4h-7.1l-4.4-6.7l-4.5,6.7H438.1z"/>
</g>
</svg>
